<svg width="24" height="24" viewBox="0 0 24 24" fill="none" xmlns="http://www.w3.org/2000/svg">
<g id="circum:discount-1">
<path id="Vector" d="M21.9529 11.9999C21.9529 12.5909 21.6069 13.1239 21.1139 13.6099C20.8189 13.8999 20.4749 14.1779 20.1719 14.4599C19.9299 14.6849 19.7119 14.9059 19.6099 15.1519C19.5029 15.4089 19.4959 15.7279 19.5049 16.0649C19.5159 16.4809 19.5609 16.9199 19.5639 17.3299C19.5699 18.0209 19.4409 18.6339 19.0379 19.0379C18.6339 19.4409 18.0209 19.5699 17.3299 19.5639C16.9199 19.5599 16.4809 19.5159 16.0659 19.5049C15.7289 19.4959 15.4089 19.5029 15.1519 19.6099C14.9059 19.7119 14.6849 19.9299 14.4599 20.1719C14.1779 20.4749 13.8999 20.8189 13.6099 21.1129C13.1239 21.6069 12.5909 21.9529 11.9999 21.9529C11.4089 21.9529 10.8759 21.6069 10.3899 21.1129C10.0999 20.8189 9.82188 20.4749 9.53988 20.1719C9.31488 19.9299 9.09287 19.7119 8.84787 19.6099C8.59087 19.5029 8.27087 19.4959 7.93488 19.5049C7.51888 19.5159 7.07987 19.5599 6.66988 19.5639C5.97888 19.5699 5.36487 19.4409 4.96187 19.0379C4.55787 18.6339 4.42987 18.0209 4.43587 17.3299C4.43887 16.9199 4.48388 16.4809 4.49487 16.0649C4.50388 15.7279 4.49688 15.4089 4.38987 15.1509C4.28787 14.9059 4.06988 14.6849 3.82788 14.4599C3.52588 14.1779 3.18188 13.8999 2.88688 13.6099C2.39388 13.1239 2.04688 12.5909 2.04688 11.9999C2.04688 11.4089 2.39388 10.8759 2.88688 10.3899C3.18188 10.0999 3.52588 9.82188 3.82788 9.53988C4.06988 9.31488 4.28787 9.09387 4.38987 8.84888C4.49688 8.59088 4.50388 8.27187 4.49487 7.93488C4.48388 7.51888 4.43887 7.07987 4.43587 6.66988C4.42987 5.97888 4.55787 5.36588 4.96187 4.96187C5.36487 4.55888 5.97888 4.42987 6.66988 4.43587C7.07987 4.43987 7.51888 4.48388 7.93488 4.49487C8.27087 4.50388 8.59087 4.49688 8.84787 4.38987C9.09287 4.28787 9.31488 4.06988 9.53988 3.82788C9.82188 3.52488 10.0999 3.18088 10.3899 2.88688C10.8759 2.39288 11.4089 2.04688 11.9999 2.04688C12.5909 2.04688 13.1239 2.39288 13.6099 2.88688C13.8999 3.18088 14.1779 3.52488 14.4599 3.82788C14.6849 4.06988 14.9059 4.28787 15.1519 4.38987C15.4089 4.49688 15.7289 4.50388 16.0659 4.49487C16.4809 4.48388 16.9199 4.43987 17.3299 4.43587C18.0209 4.42987 18.6339 4.55888 19.0379 4.96187C19.4409 5.36588 19.5699 5.97888 19.5639 6.66988C19.5609 7.07987 19.5159 7.51888 19.5049 7.93488C19.4959 8.27187 19.5029 8.59087 19.6099 8.84787C19.7119 9.09387 19.9299 9.31488 20.1719 9.53988C20.4749 9.82188 20.8189 10.0999 21.1139 10.3899C21.6069 10.8759 21.9529 11.4089 21.9529 11.9999ZM20.9529 11.9999C20.9529 11.8119 20.8649 11.6449 20.7469 11.4819C20.5829 11.2559 20.3589 11.0449 20.1249 10.8359C19.5419 10.3149 18.9199 9.79588 18.6859 9.23188C18.4439 8.64688 18.5089 7.83287 18.5499 7.05387C18.5669 6.73887 18.5769 6.43188 18.5349 6.15887C18.5059 5.96788 18.4549 5.79388 18.3309 5.66988C18.2059 5.54488 18.0319 5.49388 17.8409 5.46488C17.5679 5.42288 17.2609 5.43287 16.9459 5.44987C16.1669 5.49087 15.3529 5.55588 14.7689 5.31388C14.2039 5.07988 13.6849 4.45888 13.1639 3.87488C12.9549 3.64088 12.7439 3.41688 12.5179 3.25288C12.3549 3.13488 12.1879 3.04688 11.9999 3.04688C11.8129 3.04688 11.6449 3.13488 11.4819 3.25288C11.2559 3.41688 11.0449 3.64088 10.8359 3.87488C10.3149 4.45888 9.79588 5.07988 9.23088 5.31388C8.64687 5.55588 7.83287 5.49087 7.05387 5.44987C6.73887 5.43287 6.43188 5.42288 6.15887 5.46488C5.96688 5.49388 5.79388 5.54488 5.66888 5.66988C5.54388 5.79388 5.49388 5.96788 5.46488 6.15887C5.42288 6.43188 5.43287 6.73887 5.44887 7.05387C5.49088 7.83287 5.55588 8.64687 5.31388 9.23088C5.07988 9.79588 4.45888 10.3149 3.87488 10.8359C3.64088 11.0449 3.41688 11.2559 3.25288 11.4819C3.13488 11.6449 3.04688 11.8119 3.04688 11.9999C3.04688 12.1879 3.13488 12.3549 3.25288 12.5179C3.41688 12.7439 3.64088 12.9549 3.87488 13.1639C4.45888 13.6849 5.07988 14.2039 5.31388 14.7689C5.55588 15.3529 5.49088 16.1669 5.44887 16.9459C5.43287 17.2609 5.42288 17.5679 5.46488 17.8409C5.49388 18.0319 5.54388 18.2059 5.66888 18.3299C5.79388 18.4549 5.96688 18.5059 6.15887 18.5349C6.43188 18.5769 6.73887 18.5669 7.05387 18.5499C7.83287 18.5089 8.64687 18.4439 9.23088 18.6859C9.79588 18.9199 10.3149 19.5409 10.8359 20.1249C11.0449 20.3589 11.2559 20.5829 11.4819 20.7469C11.6449 20.8649 11.8129 20.9529 11.9999 20.9529C12.1879 20.9529 12.3549 20.8649 12.5179 20.7469C12.7439 20.5829 12.9549 20.3589 13.1639 20.1249C13.6849 19.5409 14.2039 18.9199 14.7689 18.6859C15.3529 18.4439 16.1669 18.5089 16.9459 18.5499C17.2609 18.5669 17.5679 18.5769 17.8409 18.5349C18.0319 18.5059 18.2059 18.4549 18.3309 18.3299C18.4549 18.2059 18.5059 18.0319 18.5349 17.8409C18.5769 17.5679 18.5669 17.2609 18.5499 16.9459C18.5089 16.1669 18.4439 15.3529 18.6859 14.7679C18.9199 14.2039 19.5419 13.6849 20.1249 13.1639C20.3589 12.9549 20.5829 12.7439 20.7469 12.5179C20.8649 12.3549 20.9529 12.1879 20.9529 11.9999ZM10.4219 10.2379C10.3276 10.3321 10.2157 10.4068 10.0925 10.4578C9.96932 10.5088 9.83732 10.535 9.70402 10.5349C9.57072 10.5349 9.43874 10.5086 9.31561 10.4575C9.19247 10.4065 9.0806 10.3317 8.98637 10.2374C8.89215 10.1431 8.81742 10.0312 8.76645 9.90799C8.71549 9.78482 8.68928 9.65282 8.68932 9.51952C8.68937 9.38622 8.71567 9.25424 8.76672 9.1311C8.81778 9.00797 8.89259 8.8961 8.98688 8.80188C9.1773 8.61158 9.43552 8.50473 9.70473 8.50482C9.97394 8.50492 10.2321 8.61195 10.4224 8.80237C10.6127 8.9928 10.7195 9.25102 10.7194 9.52023C10.7193 9.78944 10.6123 10.0476 10.4219 10.2379ZM14.8929 8.39987C14.9872 8.3088 15.1135 8.2584 15.2446 8.25954C15.3757 8.26068 15.5011 8.31326 15.5938 8.40597C15.6865 8.49867 15.7391 8.62408 15.7402 8.75517C15.7414 8.88627 15.691 9.01257 15.5999 9.10688L9.10688 15.5999C9.01257 15.691 8.88627 15.7414 8.75517 15.7402C8.62408 15.7391 8.49867 15.6865 8.40597 15.5938C8.31326 15.5011 8.26068 15.3757 8.25954 15.2446C8.2584 15.1135 8.3088 14.9872 8.39987 14.8929L14.8929 8.39987ZM13.5779 13.7629C13.6722 13.6687 13.7841 13.5939 13.9073 13.543C14.0304 13.492 14.1624 13.4658 14.2957 13.4658C14.429 13.4659 14.561 13.4922 14.6841 13.5432C14.8073 13.5943 14.9192 13.6691 15.0134 13.7634C15.1076 13.8577 15.1823 13.9696 15.2333 14.0928C15.2843 14.2159 15.3105 14.3479 15.3104 14.4812C15.3104 14.6145 15.2841 14.7465 15.233 14.8696C15.182 14.9928 15.1072 15.1047 15.0129 15.1989C14.8224 15.3892 14.5642 15.496 14.295 15.4959C14.0258 15.4958 13.7677 15.3888 13.5774 15.1984C13.3871 15.0079 13.2802 14.7497 13.2803 14.4805C13.2804 14.2113 13.3874 13.9532 13.5779 13.7629Z" fill="#30D158"/>
</g>
</svg>
