<svg width="20" height="21" viewBox="0 0 24 24" fill="none" xmlns="http://www.w3.org/2000/svg">
<path d="M12 1.92859C14.2165 1.92859 16.3421 2.80907 17.9094 4.37634C19.4767 5.94361 20.3571 8.06928 20.3571 10.2857C20.3571 13.8172 17.8757 17.6657 12.9771 21.8726C12.7048 22.1066 12.3575 22.2351 11.9984 22.2348C11.6393 22.2345 11.2923 22.1053 11.0203 21.8709L10.6963 21.5897C6.01457 17.4926 3.64286 13.7383 3.64286 10.2857C3.64286 8.06928 4.52334 5.94361 6.09061 4.37634C7.65788 2.80907 9.78355 1.92859 12 1.92859ZM12 7.07145C11.1475 7.07145 10.33 7.41009 9.72716 8.01289C9.12436 8.61568 8.78571 9.43325 8.78571 10.2857C8.78571 11.1382 9.12436 11.9558 9.72716 12.5586C10.33 13.1614 11.1475 13.5 12 13.5C12.8525 13.5 13.67 13.1614 14.2728 12.5586C14.8756 11.9558 15.2143 11.1382 15.2143 10.2857C15.2143 9.43325 14.8756 8.61568 14.2728 8.01289C13.67 7.41009 12.8525 7.07145 12 7.07145Z" fill="#636366"/>
</svg>
