<svg width="32" height="32" viewBox="0 0 32 32" fill="none" xmlns="http://www.w3.org/2000/svg">
<g id="octicon:play-24">
<path id="Vector" d="M12.6665 20.7776V11.2202C12.6667 11.1007 12.6991 10.9833 12.7602 10.8806C12.8213 10.7778 12.909 10.6934 13.0139 10.6361C13.1189 10.5788 13.2374 10.5509 13.3569 10.5551C13.4764 10.5594 13.5925 10.5957 13.6932 10.6602L21.1278 15.4376C21.222 15.4979 21.2994 15.5809 21.3531 15.679C21.4067 15.7771 21.4349 15.8871 21.4349 15.9989C21.4349 16.1107 21.4067 16.2207 21.3531 16.3188C21.2994 16.4169 21.222 16.4999 21.1278 16.5602L13.6932 21.3389C13.5925 21.4035 13.4764 21.4398 13.3569 21.444C13.2374 21.4483 13.1189 21.4203 13.0139 21.3631C12.909 21.3058 12.8213 21.2214 12.7602 21.1186C12.6991 21.0158 12.6667 20.8985 12.6665 20.7789V20.7776Z" fill="white"/>
<path id="Vector_2" d="M1.3335 15.9987C1.3335 7.8987 7.90016 1.33203 16.0002 1.33203C24.1002 1.33203 30.6668 7.8987 30.6668 15.9987C30.6668 24.0987 24.1002 30.6654 16.0002 30.6654C7.90016 30.6654 1.3335 24.0987 1.3335 15.9987ZM16.0002 3.33203C12.6408 3.33203 9.41894 4.66655 7.04348 7.04201C4.66802 9.41747 3.3335 12.6393 3.3335 15.9987C3.3335 19.3581 4.66802 22.5799 7.04348 24.9554C9.41894 27.3308 12.6408 28.6654 16.0002 28.6654C19.3596 28.6654 22.5814 27.3308 24.9568 24.9554C27.3323 22.5799 28.6668 19.3581 28.6668 15.9987C28.6668 12.6393 27.3323 9.41747 24.9568 7.04201C22.5814 4.66655 19.3596 3.33203 16.0002 3.33203Z" fill="white"/>
</g>
</svg>
